<?xml version="1.0" encoding="UTF-8" standalone="no"?>
<!-- Created with Inkscape (http://www.inkscape.org/) -->

<svg
   xmlns:dc="http://purl.org/dc/elements/1.1/"
   xmlns:cc="http://creativecommons.org/ns#"
   xmlns:rdf="http://www.w3.org/1999/02/22-rdf-syntax-ns#"
   xmlns:svg="http://www.w3.org/2000/svg"
   xmlns="http://www.w3.org/2000/svg"
   xmlns:sodipodi="http://sodipodi.sourceforge.net/DTD/sodipodi-0.dtd"
   xmlns:inkscape="http://www.inkscape.org/namespaces/inkscape"
   width="500"
   height="500"
   id="svg2"
   version="1.1"
   inkscape:version="0.48.4 r9939"
   sodipodi:docname="icon.svg">
  <defs
     id="defs4" />
  <sodipodi:namedview
     id="base"
     pagecolor="#ffffff"
     bordercolor="#666666"
     borderopacity="1.0"
     inkscape:pageopacity="0.0"
     inkscape:pageshadow="2"
     inkscape:zoom="1"
     inkscape:cx="-61.000186"
     inkscape:cy="186.51754"
     inkscape:document-units="px"
     inkscape:current-layer="layer1"
     showgrid="false"
     inkscape:window-width="1920"
     inkscape:window-height="1039"
     inkscape:window-x="0"
     inkscape:window-y="0"
     inkscape:window-maximized="1"
     fit-margin-top="50"
     fit-margin-left="50"
     fit-margin-right="50"
     fit-margin-bottom="50" />
  <metadata
     id="metadata7">
    <rdf:RDF>
      <cc:Work
         rdf:about="">
        <dc:format>image/svg+xml</dc:format>
        <dc:type
           rdf:resource="http://purl.org/dc/dcmitype/StillImage" />
        <dc:title />
      </cc:Work>
    </rdf:RDF>
  </metadata>
  <g
     inkscape:label="Layer 1"
     inkscape:groupmode="layer"
     id="layer1"
     transform="translate(50,50)">
    <path
       style="stroke-width:54.50000000000000000;stroke-linecap:round;stroke-linejoin:round;stroke-miterlimit:4;stroke-dasharray:none;fill:#141414;fill-opacity:1"
       d="M 38.375,0 C 17.109269,0 0,17.10927 0,38.375 L 0,361.59375 C 0,382.85948 17.109269,400 38.375,400 l 323.21875,0 C 382.85948,400 400,382.85948 400,361.59375 L 400,288.375 C 400,267.10927 382.85948,250 361.59375,250 L 188.375,250 C 167.10927,250 150,232.85948 150,211.59375 L 150,38.375 C 150,17.10927 132.85948,0 111.59375,0 z"
       id="rect3753"
       inkscape:connector-curvature="0"
       sodipodi:nodetypes="sssssssssssss" />
    <path
       style="stroke-width:54.50000000000000000;stroke-linecap:round;stroke-linejoin:round;stroke-miterlimit:4;stroke-dasharray:none;fill:#141414;fill-opacity:1"
       d="m 232.57325,0.004 c -22.57474,0.56812 -40.57698,18.93299 -40.57698,41.6495 l 0,124.68848 c 0,23.07708 18.57241,41.66575 41.6495,41.66575 l 124.70473,0 c 23.07709,0 41.6495,-18.58867 41.6495,-41.66575 l 0,-0.92626 c 0,-23.0771 -18.57241,-41.6495 -41.6495,-41.6495 l -40.46323,0 c -23.07709,0 -41.64949,-18.58865 -41.64949,-41.66574 l 0,-40.44698 c 0,-23.07709 -18.57241,-41.6495 -41.6495,-41.6495 l -0.94251,0 c -0.36058,0 -0.71419,-0.009 -1.07252,0 z"
       id="rect3802"
       inkscape:connector-curvature="0"
       sodipodi:nodetypes="cssssssssssssc" />
  </g>
</svg>
