<?xml version="1.0" encoding="UTF-8" standalone="no"?>
<!-- Created with Inkscape (http://www.inkscape.org/) -->

<svg
   xmlns:dc="http://purl.org/dc/elements/1.1/"
   xmlns:cc="http://creativecommons.org/ns#"
   xmlns:rdf="http://www.w3.org/1999/02/22-rdf-syntax-ns#"
   xmlns:svg="http://www.w3.org/2000/svg"
   xmlns="http://www.w3.org/2000/svg"
   xmlns:sodipodi="http://sodipodi.sourceforge.net/DTD/sodipodi-0.dtd"
   xmlns:inkscape="http://www.inkscape.org/namespaces/inkscape"
   width="550"
   height="550"
   id="svg2"
   version="1.1"
   inkscape:version="0.48.4 r9939"
   sodipodi:docname="iconblack.svg">
  <defs
     id="defs4">
    <filter
       inkscape:collect="always"
       id="filter3790">
      <feGaussianBlur
         inkscape:collect="always"
         stdDeviation="5.2001433"
         id="feGaussianBlur3792" />
    </filter>
    <filter
       inkscape:collect="always"
       id="filter3858">
      <feGaussianBlur
         inkscape:collect="always"
         stdDeviation="5.2001433"
         id="feGaussianBlur3860" />
    </filter>
  </defs>
  <sodipodi:namedview
     id="base"
     pagecolor="#ffffff"
     bordercolor="#666666"
     borderopacity="1.0"
     inkscape:pageopacity="0.0"
     inkscape:pageshadow="2"
     inkscape:zoom="1"
     inkscape:cx="-49.50069"
     inkscape:cy="311.8337"
     inkscape:document-units="px"
     inkscape:current-layer="layer1"
     showgrid="false"
     inkscape:window-width="1920"
     inkscape:window-height="1039"
     inkscape:window-x="0"
     inkscape:window-y="0"
     inkscape:window-maximized="1"
     fit-margin-top="100"
     fit-margin-left="100"
     fit-margin-right="100"
     fit-margin-bottom="100" />
  <metadata
     id="metadata7">
    <rdf:RDF>
      <cc:Work
         rdf:about="">
        <dc:format>image/svg+xml</dc:format>
        <dc:type
           rdf:resource="http://purl.org/dc/dcmitype/StillImage" />
        <dc:title />
      </cc:Work>
    </rdf:RDF>
  </metadata>
  <g
     inkscape:label="Layer 1"
     inkscape:groupmode="layer"
     id="layer1"
     transform="translate(150,0)">
    <path
       style="fill:#828282;fill-opacity:1;stroke-width:54.50000000000000000;stroke-linecap:round;stroke-linejoin:round;stroke-miterlimit:4;stroke-dasharray:none;filter:url(#filter3858)"
       d="m 132.57325,100.004 c -22.57474,0.56812 -40.57698,18.93299 -40.57698,41.6495 l 0,124.68848 c 0,23.07708 18.57241,41.66575 41.6495,41.66575 l 124.70473,0 c 23.07709,0 41.6495,-18.58867 41.6495,-41.66575 l 0,-0.92626 c 0,-23.0771 -18.57241,-41.6495 -41.6495,-41.6495 l -40.46323,0 c -23.07709,0 -41.64949,-18.58865 -41.64949,-41.66574 l 0,-40.44698 c 0,-23.07709 -18.57241,-41.6495 -41.6495,-41.6495 l -0.94251,0 c -0.36058,0 -0.71419,-0.009 -1.07252,0 z"
       id="rect3802"
       inkscape:connector-curvature="0"
       sodipodi:nodetypes="cssssssssssssc" />
    <path
       style="fill:#828282;fill-opacity:1;stroke-width:54.50000000000000000;stroke-linecap:round;stroke-linejoin:round;stroke-miterlimit:4;stroke-dasharray:none;filter:url(#filter3790)"
       d="M -9.423015,241.99627 C -31.997755,242.56439 -50,260.92926 -50,283.64577 l 0,124.68848 C -50,431.41133 -31.427585,450 -8.350495,450 l 124.704735,0 c 23.07709,0 41.64949,-18.58867 41.64949,-41.66575 l 0,-0.92626 c 0,-23.0771 -18.5724,-41.6495 -41.64949,-41.6495 l -40.463235,0 c -23.07709,0 -41.64949,-18.58865 -41.64949,-41.66574 l 0,-40.44698 c 0,-23.07709 -18.57241,-41.6495 -41.6495,-41.6495 l -0.94251,0 c -0.36058,0 -0.71419,-0.009 -1.07252,0 z"
       id="rect3802-5"
       inkscape:connector-curvature="0"
       sodipodi:nodetypes="cssssssssssssc" />
    <path
       style="fill:#141414;fill-opacity:1;stroke-width:54.5;stroke-linecap:round;stroke-linejoin:round;stroke-miterlimit:4;stroke-dasharray:none"
       d="m -8.5020026,245.80557 c -21.4698094,-0.66451 -40.2129034,20.48304 -37.4921884,41.71873 0.444114,42.74949 -0.940691,85.58547 0.710938,128.28127 3.438953,19.29592 23.691582,32.79984 42.9374772,30.05069 41.7763798,-0.32922 83.7592358,0.73303 125.4062758,-0.55069 21.66339,-3.21373 36.15034,-27.6799 29.625,-48.28125 -4.74161,-17.68542 -23.45309,-29.63173 -41.46766,-27.47215 -18.075254,-1.04121 -37.29136,3.24486 -54.469843,-3.9966 -17.841461,-8.13261 -28.59876,-28.11422 -26.59375,-47.46875 -0.872636,-16.44881 2.756359,-33.84862 -2.9375,-49.59375 -5.890346,-13.70199 -20.5569484,-23.26626 -35.7187496,-22.6875 z"
       id="rect3802-5-7"
       inkscape:connector-curvature="0" />
    <path
       style="fill:#141414;fill-opacity:1;stroke-width:54.5;stroke-linecap:round;stroke-linejoin:round;stroke-miterlimit:4;stroke-dasharray:none"
       d="m 133.49624,103.8148 c -21.53181,-0.6027 -40.204109,20.46891 -37.492189,41.71873 0.44412,42.74949 -0.94069,85.58547 0.71094,128.28127 3.420199,19.2835 23.699669,32.79202 42.937479,30.05069 42.11452,-0.42217 84.39762,0.92582 126.40627,-0.70694 21.17157,-3.88775 35.02283,-27.79324 28.625,-48.125 -4.70717,-17.68156 -23.48589,-29.61249 -41.46766,-27.47215 -18.07525,-1.04121 -37.29136,3.24486 -54.46984,-3.9966 -17.8435,-8.12836 -28.60677,-28.11823 -26.59375,-47.46875 -0.87264,-16.44881 2.75636,-33.84862 -2.9375,-49.59375 -5.85327,-13.66353 -20.58033,-23.28011 -35.71875,-22.6875 z"
       id="rect3802-52"
       inkscape:connector-curvature="0" />
  </g>
</svg>
